<?xml version="1.0" encoding="utf-8"?>
<!-- Generator: Adobe Illustrator 16.0.0, SVG Export Plug-In . SVG Version: 6.00 Build 0)  -->
<!DOCTYPE svg PUBLIC "-//W3C//DTD SVG 1.1//EN" "http://www.w3.org/Graphics/SVG/1.1/DTD/svg11.dtd">
<svg version="1.1" xmlns="http://www.w3.org/2000/svg" xmlns:xlink="http://www.w3.org/1999/xlink" x="0px" y="0px"
	 width="595.28px" height="841.89px" viewBox="0 0 595.28 841.89" enable-background="new 0 0 595.28 841.89" xml:space="preserve">
<g id="Capa_1">
</g>
<g id="Centro_atras_copia">
	<path stroke="#FFFFFF" stroke-miterlimit="10" d="M297.641,340c-55.229,0-100,44.771-100,100s44.771,100,100,100
		s100-44.771,100-100S352.869,340,297.641,340z M297.67,480.668c-21.805,0-40-18.195-40-40s18.195-40,40-40
		c21.805,0,40,18.195,40,40S319.476,480.668,297.67,480.668z"/>
</g>
<g id="Capa_27">
</g>
<g id="Arriba_atras">
	<g id="Capa_2_copia">
		<path stroke="#FFFFFF" stroke-miterlimit="10" d="M337.808,227.634c0.034,0.663,0.052,1.33,0.052,2c0,21.805-18.195,40-40,40
			s-40-18.195-40-40c0-0.67,0.018-1.337,0.052-2H198.5c0,55.229,44.771,100,100,100s100-44.771,100-100H337.808z"/>
		<path stroke="#FFFFFF" stroke-miterlimit="10" d="M397.344,221.927l0.297,6.073c0-2.045-0.068-4.075-0.189-6.09
			C397.415,221.916,397.379,221.921,397.344,221.927z"/>
	</g>
</g>
<g id="izquierda">
	<g id="Capa_2_copia_2">
		<path stroke="#FFFFFF" stroke-miterlimit="10" d="M95.669,512.666c0.557-0.361,1.126-0.71,1.706-1.045
			c18.883-10.902,43.739-4.242,54.641,14.641c10.902,18.884,4.243,43.739-14.641,54.642c-0.58,0.335-1.167,0.653-1.758,0.955
			l29.705,51.451c47.83-27.614,64.217-88.772,36.603-136.603c-27.614-47.829-88.773-64.217-136.602-36.603L95.669,512.666z"/>
		<path stroke="#FFFFFF" stroke-miterlimit="10" d="M397.344,221.927l0.297,6.073c0-2.045-0.068-4.075-0.189-6.09
			C397.415,221.916,397.379,221.921,397.344,221.927z"/>
	</g>
</g>
<g id="derecha">
	<g id="Capa_2_copia_3">
		<path stroke="#FFFFFF" stroke-miterlimit="10" d="M460.627,580.748c-0.592-0.302-1.179-0.62-1.759-0.955
			c-18.883-10.901-25.543-35.757-14.641-54.641c10.902-18.883,35.758-25.544,54.642-14.642c0.58,0.335,1.148,0.684,1.706,1.045
			l29.705-51.451c-47.83-27.614-108.987-11.227-136.603,36.603c-27.614,47.829-11.228,108.988,36.603,136.603L460.627,580.748z"/>
		<path stroke="#FFFFFF" stroke-miterlimit="10" d="M397.344,221.927l0.297,6.073c0-2.045-0.068-4.075-0.189-6.09
			C397.415,221.916,397.379,221.921,397.344,221.927z"/>
	</g>
	<g id="Capa_19">
	</g>
	<g id="Capa_16" display="none">
		
			<rect x="369.233" y="488.484" transform="matrix(-0.5 0.866 -0.866 -0.5 1010.744 405.7787)" display="inline" fill="#E30613" width="38" height="12.366"/>
	</g>
	<g id="Capa_16_copia" display="none">
		<rect x="277.656" y="327.574" display="inline" fill="#E30613" width="38" height="12.365"/>
	</g>
	<g id="Capa_16_copia_2" display="none">
		
			<rect x="188.495" y="488.985" transform="matrix(-0.5 -0.866 0.866 -0.5 -117.5857 922.4456)" display="inline" fill="#E30613" width="38" height="12.365"/>
	</g>
</g>
<g id="Capa_16_copia_3" display="none">
	<rect x="197.495" y="214.728" display="inline" fill="#E30613" width="60" height="12.365"/>
</g>
<g id="Capa_16_copia_4" display="none">
	<rect x="338.022" y="214.728" display="inline" fill="#E30613" width="59.999" height="12.365"/>
</g>
<g id="Capa_20">
	<circle stroke="#000000" stroke-miterlimit="10" cx="368.153" cy="185.897" r="29.5"/>
</g>
<g id="Capa_20_copia">
	<circle stroke="#000000" stroke-miterlimit="10" cx="228.153" cy="185.897" r="29.5"/>
</g>
<g id="Capa_25">
	
		<rect x="115.398" y="604.496" transform="matrix(-0.5 -0.866 0.866 -0.5 -310.7676 1041.9352)" display="none" fill="#E30613" width="59.999" height="12.365"/>
	
		<rect x="45.135" y="482.796" transform="matrix(-0.5 -0.866 0.866 -0.5 -310.7671 798.5352)" display="none" fill="#E30613" width="59.999" height="12.366"/>
	<circle stroke="#000000" stroke-miterlimit="10" cx="44.747" cy="506.371" r="29.5"/>
	<circle stroke="#000000" stroke-miterlimit="10" cx="114.747" cy="627.615" r="29.5"/>
</g>
<g id="Capa_25_copia">
	
		<rect x="490.394" y="482.794" transform="matrix(-0.5 0.866 -0.866 -0.5 1204.0554 282.7905)" display="none" fill="#E30613" width="59.998" height="12.365"/>
	
		<rect x="420.13" y="604.494" transform="matrix(-0.5 0.866 -0.866 -0.5 1204.0565 526.196)" display="none" fill="#E30613" width="59.999" height="12.366"/>
	<circle stroke="#000000" stroke-miterlimit="10" cx="480.385" cy="628.297" r="29.5"/>
	<circle stroke="#000000" stroke-miterlimit="10" cx="550.385" cy="507.054" r="29.5"/>
</g>
<g id="Capa_24">
</g>
<g id="Arriba_adelante" display="none">
	<path display="inline" fill="#FFFFFF" stroke="#FFFFFF" stroke-miterlimit="10" d="M297,190c21.805,0,40,18.195,40,40
		c0,9.367-3.364,18.063-8.924,24.941c5.959-6.985,9.564-16.04,9.564-25.941c0-22.091-17.908-40-40-40
		c-15.605,0-29.114,8.943-35.707,21.978C268.786,198.563,282.043,190,297,190z"/>
	<path display="inline" fill="none" d="M254.462,228C228,228,201,228,175,228c0-42,0-83,0-125"/>
	<path display="inline" fill="none" d="M175,103c1-5-2-11,1-16c78,0,157,0,235,0c0,47,0,94,0,141c-24,0-47,0-71.248,0"/>
</g>
<g id="Capa_14">
</g>
<g id="Capa_14_copia" display="none">
	<g display="inline">
		<g>
			
				<rect x="-34.239" y="529.655" transform="matrix(-0.866 0.5 -0.5 -0.866 547.802 941.526)" stroke="#FFFFFF" stroke-miterlimit="10" width="363.999" height="29"/>
		</g>
		<rect x="297.125" y="76.597" stroke="#FFFFFF" stroke-miterlimit="10" width="29.001" height="364"/>
	</g>
</g>
<g id="Capa_8">
</g>
<g id="Capa_11">
</g>
<g id="Capa_10" display="none">
	<polygon display="inline" fill="#E30613" stroke="#E30613" stroke-miterlimit="10" points="-1.063,653 297.64,227 596.343,653 	"/>
	<rect x="-595" y="155" display="inline" fill="#E30613" stroke="#E30613" stroke-miterlimit="10" width="0" height="0"/>
</g>
</svg>
